<mxfile host="app.diagrams.net" modified="2022-06-29T22:23:00.107Z" agent="5.0 (Windows NT 10.0; Win64; x64) AppleWebKit/537.36 (KHTML, like Gecko) Chrome/103.0.5060.53 Safari/537.36 Edg/103.0.1264.37" etag="LnyIIt2FITz4_usKELvD" version="20.0.3" type="github">
  <diagram id="_zcOvDsHGXR2nhW8fiFH" name="Page-1">
    <mxGraphModel dx="1955" dy="2845" grid="1" gridSize="10" guides="1" tooltips="1" connect="1" arrows="1" fold="1" page="1" pageScale="1" pageWidth="850" pageHeight="1100" math="0" shadow="0">
      <root>
        <mxCell id="0" />
        <mxCell id="1" parent="0" />
        <mxCell id="kchduzSfQptDMqaAP18R-33" value="&lt;b&gt;Smart Bank Application AWS Architecture Diagram&lt;br&gt;By Omega Team&lt;br&gt;&lt;/b&gt;" style="text;html=1;strokeColor=none;fillColor=none;align=center;verticalAlign=middle;whiteSpace=wrap;rounded=0;fontSize=20;" parent="1" vertex="1">
          <mxGeometry x="570" y="-80" width="489" height="47.5" as="geometry" />
        </mxCell>
        <mxCell id="GHOSXLU9OCpANRJcqfyZ-97" style="edgeStyle=orthogonalEdgeStyle;rounded=0;orthogonalLoop=1;jettySize=auto;html=1;fontSize=24;strokeWidth=3;" parent="1" source="GHOSXLU9OCpANRJcqfyZ-96" edge="1">
          <mxGeometry relative="1" as="geometry">
            <mxPoint x="820" y="272" as="targetPoint" />
          </mxGeometry>
        </mxCell>
        <mxCell id="GHOSXLU9OCpANRJcqfyZ-2" value="US West (Northern California)" style="points=[[0,0],[0.25,0],[0.5,0],[0.75,0],[1,0],[1,0.25],[1,0.5],[1,0.75],[1,1],[0.75,1],[0.5,1],[0.25,1],[0,1],[0,0.75],[0,0.5],[0,0.25]];outlineConnect=0;gradientColor=none;html=1;whiteSpace=wrap;fontSize=24;fontStyle=0;container=1;pointerEvents=0;collapsible=0;recursiveResize=0;shape=mxgraph.aws4.group;grIcon=mxgraph.aws4.group_region;strokeColor=#147EBA;fillColor=none;verticalAlign=top;align=left;spacingLeft=30;fontColor=#147EBA;dashed=1;" parent="1" vertex="1">
          <mxGeometry x="80" y="120" width="1760" height="1010" as="geometry" />
        </mxCell>
        <mxCell id="GHOSXLU9OCpANRJcqfyZ-3" value="VPC" style="points=[[0,0],[0.25,0],[0.5,0],[0.75,0],[1,0],[1,0.25],[1,0.5],[1,0.75],[1,1],[0.75,1],[0.5,1],[0.25,1],[0,1],[0,0.75],[0,0.5],[0,0.25]];outlineConnect=0;gradientColor=none;html=1;whiteSpace=wrap;fontSize=24;fontStyle=0;container=1;pointerEvents=0;collapsible=0;recursiveResize=0;shape=mxgraph.aws4.group;grIcon=mxgraph.aws4.group_vpc;strokeColor=#248814;fillColor=none;verticalAlign=top;align=left;spacingLeft=30;fontColor=#AAB7B8;dashed=0;" parent="GHOSXLU9OCpANRJcqfyZ-2" vertex="1">
          <mxGeometry x="80" y="80" width="1630" height="800" as="geometry" />
        </mxCell>
        <mxCell id="GHOSXLU9OCpANRJcqfyZ-4" value="us-west-1" style="fillColor=none;strokeColor=#147EBA;dashed=1;verticalAlign=top;fontStyle=0;fontColor=#147EBA;fontSize=24;" parent="GHOSXLU9OCpANRJcqfyZ-3" vertex="1">
          <mxGeometry x="80" y="80" width="520" height="680" as="geometry" />
        </mxCell>
        <mxCell id="GHOSXLU9OCpANRJcqfyZ-5" value="us-west-2" style="fillColor=none;strokeColor=#147EBA;dashed=1;verticalAlign=top;fontStyle=0;fontColor=#147EBA;fontSize=24;" parent="GHOSXLU9OCpANRJcqfyZ-3" vertex="1">
          <mxGeometry x="720" y="80" width="520" height="680" as="geometry" />
        </mxCell>
        <mxCell id="GHOSXLU9OCpANRJcqfyZ-7" value="Public subnet" style="points=[[0,0],[0.25,0],[0.5,0],[0.75,0],[1,0],[1,0.25],[1,0.5],[1,0.75],[1,1],[0.75,1],[0.5,1],[0.25,1],[0,1],[0,0.75],[0,0.5],[0,0.25]];outlineConnect=0;gradientColor=none;html=1;whiteSpace=wrap;fontSize=24;fontStyle=0;container=1;pointerEvents=0;collapsible=0;recursiveResize=0;shape=mxgraph.aws4.group;grIcon=mxgraph.aws4.group_security_group;grStroke=0;strokeColor=#248814;fillColor=#E9F3E6;verticalAlign=top;align=left;spacingLeft=30;fontColor=#248814;dashed=0;" parent="GHOSXLU9OCpANRJcqfyZ-3" vertex="1">
          <mxGeometry x="160" y="160" width="410" height="170" as="geometry" />
        </mxCell>
        <mxCell id="GHOSXLU9OCpANRJcqfyZ-101" value="TCP 8080" style="text;html=1;strokeColor=none;fillColor=none;align=center;verticalAlign=middle;whiteSpace=wrap;rounded=0;fontSize=24;" parent="GHOSXLU9OCpANRJcqfyZ-7" vertex="1">
          <mxGeometry x="330" y="195" width="60" height="40" as="geometry" />
        </mxCell>
        <mxCell id="GHOSXLU9OCpANRJcqfyZ-11" value="Public subnet" style="points=[[0,0],[0.25,0],[0.5,0],[0.75,0],[1,0],[1,0.25],[1,0.5],[1,0.75],[1,1],[0.75,1],[0.5,1],[0.25,1],[0,1],[0,0.75],[0,0.5],[0,0.25]];outlineConnect=0;gradientColor=none;html=1;whiteSpace=wrap;fontSize=24;fontStyle=0;container=1;pointerEvents=0;collapsible=0;recursiveResize=0;shape=mxgraph.aws4.group;grIcon=mxgraph.aws4.group_security_group;grStroke=0;strokeColor=#248814;fillColor=#E9F3E6;verticalAlign=top;align=left;spacingLeft=30;fontColor=#248814;dashed=0;" parent="GHOSXLU9OCpANRJcqfyZ-3" vertex="1">
          <mxGeometry x="760" y="160" width="400" height="160" as="geometry" />
        </mxCell>
        <mxCell id="GHOSXLU9OCpANRJcqfyZ-15" value="" style="sketch=0;points=[[0,0,0],[0.25,0,0],[0.5,0,0],[0.75,0,0],[1,0,0],[0,1,0],[0.25,1,0],[0.5,1,0],[0.75,1,0],[1,1,0],[0,0.25,0],[0,0.5,0],[0,0.75,0],[1,0.25,0],[1,0.5,0],[1,0.75,0]];outlineConnect=0;fontColor=#232F3E;gradientColor=#F78E04;gradientDirection=north;fillColor=#D05C17;strokeColor=#ffffff;dashed=0;verticalLabelPosition=bottom;verticalAlign=top;align=center;html=1;fontSize=12;fontStyle=0;aspect=fixed;shape=mxgraph.aws4.resourceIcon;resIcon=mxgraph.aws4.ec2;" parent="GHOSXLU9OCpANRJcqfyZ-11" vertex="1">
          <mxGeometry x="81" y="50" width="78" height="78" as="geometry" />
        </mxCell>
        <mxCell id="xp0xxWGgyvAD72CC1YtM-14" value="&lt;font style=&quot;font-size: 24px;&quot;&gt;10.0.3.0/24&lt;/font&gt;" style="text;html=1;strokeColor=none;fillColor=none;align=center;verticalAlign=middle;whiteSpace=wrap;rounded=0;" parent="GHOSXLU9OCpANRJcqfyZ-11" vertex="1">
          <mxGeometry x="250" y="130" width="150" height="30" as="geometry" />
        </mxCell>
        <mxCell id="GHOSXLU9OCpANRJcqfyZ-12" value="Private subnet" style="points=[[0,0],[0.25,0],[0.5,0],[0.75,0],[1,0],[1,0.25],[1,0.5],[1,0.75],[1,1],[0.75,1],[0.5,1],[0.25,1],[0,1],[0,0.75],[0,0.5],[0,0.25]];outlineConnect=0;gradientColor=none;html=1;whiteSpace=wrap;fontSize=24;fontStyle=0;container=1;pointerEvents=0;collapsible=0;recursiveResize=0;shape=mxgraph.aws4.group;grIcon=mxgraph.aws4.group_security_group;grStroke=0;strokeColor=#147EBA;fillColor=#E6F2F8;verticalAlign=top;align=left;spacingLeft=30;fontColor=#147EBA;dashed=0;" parent="GHOSXLU9OCpANRJcqfyZ-3" vertex="1">
          <mxGeometry x="160" y="350" width="420" height="370" as="geometry" />
        </mxCell>
        <mxCell id="GHOSXLU9OCpANRJcqfyZ-102" value="TCP&lt;br&gt;5432" style="text;html=1;strokeColor=none;fillColor=none;align=center;verticalAlign=middle;whiteSpace=wrap;rounded=0;fontSize=24;" parent="GHOSXLU9OCpANRJcqfyZ-12" vertex="1">
          <mxGeometry x="210" y="160" width="60" height="70" as="geometry" />
        </mxCell>
        <mxCell id="GHOSXLU9OCpANRJcqfyZ-85" value="EC2&lt;br&gt;SpringBoot API" style="text;html=1;strokeColor=none;fillColor=none;align=center;verticalAlign=middle;whiteSpace=wrap;rounded=0;fontSize=24;" parent="GHOSXLU9OCpANRJcqfyZ-12" vertex="1">
          <mxGeometry x="50" y="73" width="180" height="80" as="geometry" />
        </mxCell>
        <mxCell id="xp0xxWGgyvAD72CC1YtM-13" value="&lt;font style=&quot;font-size: 24px;&quot;&gt;10.0.2.0/24&lt;/font&gt;" style="text;html=1;strokeColor=none;fillColor=none;align=center;verticalAlign=middle;whiteSpace=wrap;rounded=0;" parent="GHOSXLU9OCpANRJcqfyZ-12" vertex="1">
          <mxGeometry x="10" y="320" width="150" height="30" as="geometry" />
        </mxCell>
        <mxCell id="GHOSXLU9OCpANRJcqfyZ-13" value="Private subnet" style="points=[[0,0],[0.25,0],[0.5,0],[0.75,0],[1,0],[1,0.25],[1,0.5],[1,0.75],[1,1],[0.75,1],[0.5,1],[0.25,1],[0,1],[0,0.75],[0,0.5],[0,0.25]];outlineConnect=0;gradientColor=none;html=1;whiteSpace=wrap;fontSize=24;fontStyle=0;container=1;pointerEvents=0;collapsible=0;recursiveResize=0;shape=mxgraph.aws4.group;grIcon=mxgraph.aws4.group_security_group;grStroke=0;strokeColor=#147EBA;fillColor=#E6F2F8;verticalAlign=top;align=left;spacingLeft=30;fontColor=#147EBA;dashed=0;" parent="GHOSXLU9OCpANRJcqfyZ-3" vertex="1">
          <mxGeometry x="760" y="350" width="400" height="370" as="geometry" />
        </mxCell>
        <mxCell id="GHOSXLU9OCpANRJcqfyZ-17" value="" style="sketch=0;points=[[0,0,0],[0.25,0,0],[0.5,0,0],[0.75,0,0],[1,0,0],[0,1,0],[0.25,1,0],[0.5,1,0],[0.75,1,0],[1,1,0],[0,0.25,0],[0,0.5,0],[0,0.75,0],[1,0.25,0],[1,0.5,0],[1,0.75,0]];outlineConnect=0;fontColor=#232F3E;gradientColor=#F78E04;gradientDirection=north;fillColor=#D05C17;strokeColor=#ffffff;dashed=0;verticalLabelPosition=bottom;verticalAlign=top;align=center;html=1;fontSize=12;fontStyle=0;aspect=fixed;shape=mxgraph.aws4.resourceIcon;resIcon=mxgraph.aws4.ec2;" parent="GHOSXLU9OCpANRJcqfyZ-13" vertex="1">
          <mxGeometry x="81" y="70" width="78" height="78" as="geometry" />
        </mxCell>
        <mxCell id="xp0xxWGgyvAD72CC1YtM-15" value="&lt;font style=&quot;font-size: 24px;&quot;&gt;10.0.4.0/24&lt;/font&gt;" style="text;html=1;strokeColor=none;fillColor=none;align=center;verticalAlign=middle;whiteSpace=wrap;rounded=0;" parent="GHOSXLU9OCpANRJcqfyZ-13" vertex="1">
          <mxGeometry x="230" y="320" width="150" height="30" as="geometry" />
        </mxCell>
        <mxCell id="3FHLcvdIe8mN59UBqb5Q-3" value="TCP 8079" style="text;html=1;strokeColor=none;fillColor=none;align=center;verticalAlign=middle;whiteSpace=wrap;rounded=0;fontSize=24;" vertex="1" parent="GHOSXLU9OCpANRJcqfyZ-13">
          <mxGeometry x="-30" y="60" width="60" height="62" as="geometry" />
        </mxCell>
        <mxCell id="GHOSXLU9OCpANRJcqfyZ-22" value="" style="sketch=0;outlineConnect=0;fontColor=#232F3E;gradientColor=none;fillColor=#4D27AA;strokeColor=none;dashed=0;verticalLabelPosition=bottom;verticalAlign=top;align=center;html=1;fontSize=12;fontStyle=0;aspect=fixed;pointerEvents=1;shape=mxgraph.aws4.network_load_balancer;" parent="GHOSXLU9OCpANRJcqfyZ-3" vertex="1">
          <mxGeometry x="621" y="272" width="78" height="78" as="geometry" />
        </mxCell>
        <mxCell id="GHOSXLU9OCpANRJcqfyZ-14" value="" style="sketch=0;points=[[0,0,0],[0.25,0,0],[0.5,0,0],[0.75,0,0],[1,0,0],[0,1,0],[0.25,1,0],[0.5,1,0],[0.75,1,0],[1,1,0],[0,0.25,0],[0,0.5,0],[0,0.75,0],[1,0.25,0],[1,0.5,0],[1,0.75,0]];outlineConnect=0;fontColor=#232F3E;gradientColor=#F78E04;gradientDirection=north;fillColor=#D05C17;strokeColor=#ffffff;dashed=0;verticalLabelPosition=bottom;verticalAlign=top;align=center;html=1;fontSize=12;fontStyle=0;aspect=fixed;shape=mxgraph.aws4.resourceIcon;resIcon=mxgraph.aws4.ec2;" parent="GHOSXLU9OCpANRJcqfyZ-3" vertex="1">
          <mxGeometry x="402" y="210" width="78" height="78" as="geometry" />
        </mxCell>
        <mxCell id="GHOSXLU9OCpANRJcqfyZ-50" style="edgeStyle=orthogonalEdgeStyle;rounded=0;orthogonalLoop=1;jettySize=auto;html=1;entryX=0.5;entryY=0.02;entryDx=0;entryDy=0;entryPerimeter=0;fontSize=24;strokeWidth=3;" parent="GHOSXLU9OCpANRJcqfyZ-3" source="GHOSXLU9OCpANRJcqfyZ-16" target="GHOSXLU9OCpANRJcqfyZ-18" edge="1">
          <mxGeometry relative="1" as="geometry" />
        </mxCell>
        <mxCell id="GHOSXLU9OCpANRJcqfyZ-39" value="" style="endArrow=classic;html=1;rounded=0;fontSize=24;strokeWidth=3;entryX=1;entryY=0.25;entryDx=0;entryDy=0;entryPerimeter=0;" parent="GHOSXLU9OCpANRJcqfyZ-3" target="GHOSXLU9OCpANRJcqfyZ-14" edge="1">
          <mxGeometry width="50" height="50" relative="1" as="geometry">
            <mxPoint x="621" y="136.67500000000018" as="sourcePoint" />
            <mxPoint x="740" y="130" as="targetPoint" />
          </mxGeometry>
        </mxCell>
        <mxCell id="GHOSXLU9OCpANRJcqfyZ-40" value="" style="endArrow=classic;html=1;rounded=0;fontSize=24;strokeWidth=3;entryX=0;entryY=0.25;entryDx=0;entryDy=0;entryPerimeter=0;" parent="GHOSXLU9OCpANRJcqfyZ-3" target="GHOSXLU9OCpANRJcqfyZ-15" edge="1">
          <mxGeometry width="50" height="50" relative="1" as="geometry">
            <mxPoint x="698.9999999999998" y="136.5331491712709" as="sourcePoint" />
            <mxPoint x="740" y="130" as="targetPoint" />
          </mxGeometry>
        </mxCell>
        <mxCell id="GHOSXLU9OCpANRJcqfyZ-42" value="" style="endArrow=classic;html=1;rounded=0;fontSize=24;strokeWidth=3;exitX=0;exitY=0.75;exitDx=0;exitDy=0;exitPerimeter=0;" parent="GHOSXLU9OCpANRJcqfyZ-3" source="GHOSXLU9OCpANRJcqfyZ-15" target="GHOSXLU9OCpANRJcqfyZ-22" edge="1">
          <mxGeometry width="50" height="50" relative="1" as="geometry">
            <mxPoint x="690" y="180" as="sourcePoint" />
            <mxPoint x="740" y="130" as="targetPoint" />
          </mxGeometry>
        </mxCell>
        <mxCell id="GHOSXLU9OCpANRJcqfyZ-43" value="" style="endArrow=classic;html=1;rounded=0;fontSize=24;strokeWidth=3;entryX=1;entryY=0.25;entryDx=0;entryDy=0;entryPerimeter=0;" parent="GHOSXLU9OCpANRJcqfyZ-3" source="GHOSXLU9OCpANRJcqfyZ-22" target="GHOSXLU9OCpANRJcqfyZ-16" edge="1">
          <mxGeometry width="50" height="50" relative="1" as="geometry">
            <mxPoint x="690" y="180" as="sourcePoint" />
            <mxPoint x="740" y="130" as="targetPoint" />
          </mxGeometry>
        </mxCell>
        <mxCell id="GHOSXLU9OCpANRJcqfyZ-44" value="" style="endArrow=classic;html=1;rounded=0;fontSize=24;strokeWidth=3;entryX=0;entryY=0.25;entryDx=0;entryDy=0;entryPerimeter=0;" parent="GHOSXLU9OCpANRJcqfyZ-3" source="GHOSXLU9OCpANRJcqfyZ-22" target="GHOSXLU9OCpANRJcqfyZ-17" edge="1">
          <mxGeometry width="50" height="50" relative="1" as="geometry">
            <mxPoint x="690" y="180" as="sourcePoint" />
            <mxPoint x="740" y="130" as="targetPoint" />
          </mxGeometry>
        </mxCell>
        <mxCell id="GHOSXLU9OCpANRJcqfyZ-53" style="edgeStyle=orthogonalEdgeStyle;rounded=0;orthogonalLoop=1;jettySize=auto;html=1;fontSize=24;strokeWidth=3;" parent="GHOSXLU9OCpANRJcqfyZ-3" source="GHOSXLU9OCpANRJcqfyZ-18" target="GHOSXLU9OCpANRJcqfyZ-19" edge="1">
          <mxGeometry relative="1" as="geometry">
            <mxPoint x="480" y="640" as="sourcePoint" />
            <mxPoint x="850" y="660" as="targetPoint" />
          </mxGeometry>
        </mxCell>
        <mxCell id="GHOSXLU9OCpANRJcqfyZ-54" value="Multi-AZ" style="edgeLabel;html=1;align=center;verticalAlign=middle;resizable=0;points=[];fontSize=24;" parent="GHOSXLU9OCpANRJcqfyZ-53" vertex="1" connectable="0">
          <mxGeometry x="0.3215" y="-8" relative="1" as="geometry">
            <mxPoint x="34" y="12" as="offset" />
          </mxGeometry>
        </mxCell>
        <mxCell id="GHOSXLU9OCpANRJcqfyZ-18" value="" style="outlineConnect=0;dashed=0;verticalLabelPosition=bottom;verticalAlign=top;align=center;html=1;shape=mxgraph.aws3.rds_db_instance;fillColor=#2E73B8;gradientColor=none;fontSize=24;" parent="GHOSXLU9OCpANRJcqfyZ-3" vertex="1">
          <mxGeometry x="401.81" y="592" width="78.38" height="90" as="geometry" />
        </mxCell>
        <mxCell id="GHOSXLU9OCpANRJcqfyZ-55" value="EC2&lt;br&gt;React + Node js" style="text;html=1;strokeColor=none;fillColor=none;align=center;verticalAlign=middle;whiteSpace=wrap;rounded=0;fontSize=24;" parent="GHOSXLU9OCpANRJcqfyZ-3" vertex="1">
          <mxGeometry x="210" y="210" width="180" height="80" as="geometry" />
        </mxCell>
        <mxCell id="GHOSXLU9OCpANRJcqfyZ-84" value="EC2&lt;br&gt;React + Node js" style="text;html=1;strokeColor=none;fillColor=none;align=center;verticalAlign=middle;whiteSpace=wrap;rounded=0;fontSize=24;" parent="GHOSXLU9OCpANRJcqfyZ-3" vertex="1">
          <mxGeometry x="940" y="210" width="180" height="80" as="geometry" />
        </mxCell>
        <mxCell id="GHOSXLU9OCpANRJcqfyZ-88" value="RDS (standby)&lt;br&gt;PostgreSQL" style="text;html=1;strokeColor=none;fillColor=none;align=center;verticalAlign=middle;whiteSpace=wrap;rounded=0;fontSize=24;" parent="GHOSXLU9OCpANRJcqfyZ-3" vertex="1">
          <mxGeometry x="935" y="592" width="180" height="80" as="geometry" />
        </mxCell>
        <mxCell id="GHOSXLU9OCpANRJcqfyZ-89" value="NLB" style="text;html=1;strokeColor=none;fillColor=none;align=center;verticalAlign=middle;whiteSpace=wrap;rounded=0;fontSize=24;" parent="GHOSXLU9OCpANRJcqfyZ-3" vertex="1">
          <mxGeometry x="630" y="365" width="60" height="30" as="geometry" />
        </mxCell>
        <mxCell id="GHOSXLU9OCpANRJcqfyZ-90" value="ALB" style="text;html=1;strokeColor=none;fillColor=none;align=center;verticalAlign=middle;whiteSpace=wrap;rounded=0;fontSize=24;" parent="GHOSXLU9OCpANRJcqfyZ-3" vertex="1">
          <mxGeometry x="630" y="170" width="60" height="30" as="geometry" />
        </mxCell>
        <mxCell id="GHOSXLU9OCpANRJcqfyZ-106" value="" style="endArrow=classic;html=1;rounded=0;fontSize=24;strokeWidth=3;exitX=1;exitY=0.75;exitDx=0;exitDy=0;exitPerimeter=0;" parent="GHOSXLU9OCpANRJcqfyZ-3" source="GHOSXLU9OCpANRJcqfyZ-14" target="GHOSXLU9OCpANRJcqfyZ-22" edge="1">
          <mxGeometry width="50" height="50" relative="1" as="geometry">
            <mxPoint x="690" y="260" as="sourcePoint" />
            <mxPoint x="740" y="210" as="targetPoint" />
          </mxGeometry>
        </mxCell>
        <mxCell id="xp0xxWGgyvAD72CC1YtM-4" value="" style="endArrow=classic;html=1;rounded=0;exitX=0;exitY=0.75;exitDx=0;exitDy=0;exitPerimeter=0;strokeWidth=3;" parent="GHOSXLU9OCpANRJcqfyZ-3" source="GHOSXLU9OCpANRJcqfyZ-17" target="GHOSXLU9OCpANRJcqfyZ-18" edge="1">
          <mxGeometry width="50" height="50" relative="1" as="geometry">
            <mxPoint x="650" y="550" as="sourcePoint" />
            <mxPoint x="700" y="500" as="targetPoint" />
          </mxGeometry>
        </mxCell>
        <mxCell id="GHOSXLU9OCpANRJcqfyZ-98" value="HTTP 80" style="text;html=1;strokeColor=none;fillColor=none;align=center;verticalAlign=middle;whiteSpace=wrap;rounded=0;fontSize=24;" parent="GHOSXLU9OCpANRJcqfyZ-3" vertex="1">
          <mxGeometry x="580" y="17.5" width="60" height="60" as="geometry" />
        </mxCell>
        <mxCell id="xp0xxWGgyvAD72CC1YtM-8" value="TCP 80" style="text;html=1;strokeColor=none;fillColor=none;align=center;verticalAlign=middle;whiteSpace=wrap;rounded=0;fontSize=24;" parent="GHOSXLU9OCpANRJcqfyZ-3" vertex="1">
          <mxGeometry x="580" y="223" width="60" height="65" as="geometry" />
        </mxCell>
        <mxCell id="xp0xxWGgyvAD72CC1YtM-9" value="TCP 80" style="text;html=1;strokeColor=none;fillColor=none;align=center;verticalAlign=middle;whiteSpace=wrap;rounded=0;fontSize=24;" parent="GHOSXLU9OCpANRJcqfyZ-3" vertex="1">
          <mxGeometry x="680" y="228" width="60" height="55" as="geometry" />
        </mxCell>
        <mxCell id="xp0xxWGgyvAD72CC1YtM-17" value="&lt;font style=&quot;font-size: 24px;&quot;&gt;10.0.0.0/16&lt;/font&gt;" style="text;html=1;strokeColor=none;fillColor=none;align=center;verticalAlign=middle;whiteSpace=wrap;rounded=0;" parent="GHOSXLU9OCpANRJcqfyZ-3" vertex="1">
          <mxGeometry x="80" y="10" width="150" height="30" as="geometry" />
        </mxCell>
        <mxCell id="sXsww_VQDi5be8ySbV31-1" value="" style="outlineConnect=0;dashed=0;verticalLabelPosition=bottom;verticalAlign=top;align=center;html=1;shape=mxgraph.aws3.application_load_balancer;fillColor=#F58536;gradientColor=none;" parent="GHOSXLU9OCpANRJcqfyZ-3" vertex="1">
          <mxGeometry x="625.5" y="80" width="69" height="72" as="geometry" />
        </mxCell>
        <mxCell id="GHOSXLU9OCpANRJcqfyZ-104" value="HTTP&lt;br&gt;8080" style="text;html=1;strokeColor=none;fillColor=none;align=center;verticalAlign=middle;whiteSpace=wrap;rounded=0;fontSize=24;" parent="GHOSXLU9OCpANRJcqfyZ-3" vertex="1">
          <mxGeometry x="841" y="110" width="60" height="60" as="geometry" />
        </mxCell>
        <mxCell id="GHOSXLU9OCpANRJcqfyZ-87" value="RDS (main)&lt;br&gt;PostgreSQL" style="text;html=1;strokeColor=none;fillColor=none;align=center;verticalAlign=middle;whiteSpace=wrap;rounded=0;fontSize=24;" parent="GHOSXLU9OCpANRJcqfyZ-3" vertex="1">
          <mxGeometry x="200" y="595" width="180" height="80" as="geometry" />
        </mxCell>
        <mxCell id="Vw7296cph1vAtUY9soFr-15" value="&lt;table border=&quot;1&quot; width=&quot;100%&quot; height=&quot;100%&quot; cellpadding=&quot;4&quot; style=&quot;width:100%;height:100%;border-collapse:collapse;&quot;&gt;&lt;tbody&gt;&lt;tr style=&quot;background-color:#A7C942;color:#ffffff;border:1px solid #98bf21;&quot;&gt;&lt;th align=&quot;left&quot;&gt;Protocol&lt;/th&gt;&lt;th align=&quot;left&quot;&gt;Port&lt;/th&gt;&lt;th align=&quot;left&quot;&gt;Source&lt;/th&gt;&lt;/tr&gt;&lt;tr style=&quot;border:1px solid #98bf21;&quot;&gt;&lt;td&gt;SSH&lt;/td&gt;&lt;td&gt;22&lt;/td&gt;&lt;td&gt;0.0.0.0/0&lt;/td&gt;&lt;/tr&gt;&lt;tr style=&quot;background-color:#EAF2D3;border:1px solid #98bf21;&quot;&gt;&lt;td&gt;HTTP&lt;/td&gt;&lt;td&gt;80&lt;/td&gt;&lt;td&gt;&lt;span style=&quot;background-color: rgb(248, 249, 250);&quot;&gt;0.0.0.0/0&lt;/span&gt;&lt;/td&gt;&lt;/tr&gt;&lt;tr style=&quot;border:1px solid #98bf21;&quot;&gt;&lt;td&gt;HTTPs&lt;/td&gt;&lt;td&gt;443&lt;/td&gt;&lt;td&gt;0.0.0.0/0&lt;/td&gt;&lt;/tr&gt;&lt;tr style=&quot;background-color:#EAF2D3;border:1px solid #98bf21;&quot;&gt;&lt;td&gt;Custom TCP&lt;/td&gt;&lt;td&gt;8080&lt;/td&gt;&lt;td&gt;&lt;span style=&quot;background-color: rgb(248, 249, 250);&quot;&gt;0.0.0.0/0&lt;/span&gt;&lt;br&gt;&lt;/td&gt;&lt;/tr&gt;&lt;/tbody&gt;&lt;/table&gt;" style="text;html=1;strokeColor=#c0c0c0;fillColor=#ffffff;overflow=fill;rounded=0;fontSize=24;" parent="GHOSXLU9OCpANRJcqfyZ-3" vertex="1">
          <mxGeometry x="1250" y="84" width="360" height="200" as="geometry" />
        </mxCell>
        <mxCell id="Vw7296cph1vAtUY9soFr-16" value="&lt;table border=&quot;1&quot; width=&quot;100%&quot; height=&quot;100%&quot; cellpadding=&quot;4&quot; style=&quot;width:100%;height:100%;border-collapse:collapse;&quot;&gt;&lt;tbody&gt;&lt;tr style=&quot;background-color:#A7C942;color:#ffffff;border:1px solid #98bf21;&quot;&gt;&lt;th align=&quot;left&quot;&gt;Protocol&lt;/th&gt;&lt;th align=&quot;left&quot;&gt;Port&lt;/th&gt;&lt;th align=&quot;left&quot;&gt;Source&lt;/th&gt;&lt;/tr&gt;&lt;tr style=&quot;border:1px solid #98bf21;&quot;&gt;&lt;td&gt;All&lt;/td&gt;&lt;td&gt;All&lt;/td&gt;&lt;td&gt;0.0.0.0/0&lt;/td&gt;&lt;/tr&gt;&lt;tr style=&quot;background-color:#EAF2D3;border:1px solid #98bf21;&quot;&gt;&lt;td&gt;Value 4&lt;/td&gt;&lt;td&gt;Value 5&lt;/td&gt;&lt;td&gt;Value 6&lt;/td&gt;&lt;/tr&gt;&lt;tr style=&quot;border:1px solid #98bf21;&quot;&gt;&lt;td&gt;Value 7&lt;/td&gt;&lt;td&gt;Value 8&lt;/td&gt;&lt;td&gt;Value 9&lt;/td&gt;&lt;/tr&gt;&lt;tr style=&quot;background-color:#EAF2D3;border:1px solid #98bf21;&quot;&gt;&lt;td&gt;Value 10&lt;/td&gt;&lt;td&gt;Value 11&lt;/td&gt;&lt;td&gt;Value 12&lt;/td&gt;&lt;/tr&gt;&lt;/tbody&gt;&lt;/table&gt;" style="text;html=1;overflow=fill;rounded=0;fontSize=24;" parent="GHOSXLU9OCpANRJcqfyZ-3" vertex="1">
          <mxGeometry x="1250" y="362" width="360" height="70" as="geometry" />
        </mxCell>
        <mxCell id="Vw7296cph1vAtUY9soFr-17" value="omega-vpc-sg-main (Inbound)" style="text;html=1;align=center;verticalAlign=middle;whiteSpace=wrap;rounded=0;labelBackgroundColor=#99FFFF;fontSize=24;" parent="GHOSXLU9OCpANRJcqfyZ-3" vertex="1">
          <mxGeometry x="1250" y="18.5" width="360" height="59" as="geometry" />
        </mxCell>
        <mxCell id="Vw7296cph1vAtUY9soFr-18" value="omega-vpc-sg-main (Outbound)" style="text;html=1;align=center;verticalAlign=middle;whiteSpace=wrap;rounded=0;labelBackgroundColor=#99FFFF;fontSize=24;" parent="GHOSXLU9OCpANRJcqfyZ-3" vertex="1">
          <mxGeometry x="1250" y="297" width="360" height="59" as="geometry" />
        </mxCell>
        <mxCell id="Vw7296cph1vAtUY9soFr-19" value="omega-vpc-sg-db (Inbound)" style="text;html=1;align=center;verticalAlign=middle;whiteSpace=wrap;rounded=0;labelBackgroundColor=#99FFFF;fontSize=24;" parent="GHOSXLU9OCpANRJcqfyZ-3" vertex="1">
          <mxGeometry x="1250" y="452" width="370" height="59" as="geometry" />
        </mxCell>
        <mxCell id="Vw7296cph1vAtUY9soFr-25" value="&lt;table border=&quot;1&quot; width=&quot;100%&quot; height=&quot;100%&quot; cellpadding=&quot;4&quot; style=&quot;width:100%;height:100%;border-collapse:collapse;&quot;&gt;&lt;tbody&gt;&lt;tr style=&quot;background-color:#A7C942;color:#ffffff;border:1px solid #98bf21;&quot;&gt;&lt;th align=&quot;left&quot;&gt;Protocol&lt;/th&gt;&lt;th align=&quot;left&quot;&gt;Port&lt;/th&gt;&lt;th align=&quot;left&quot;&gt;Source&lt;/th&gt;&lt;/tr&gt;&lt;tr style=&quot;border:1px solid #98bf21;&quot;&gt;&lt;td&gt;All&lt;/td&gt;&lt;td&gt;All&lt;/td&gt;&lt;td&gt;0.0.0.0/0&lt;/td&gt;&lt;/tr&gt;&lt;tr style=&quot;background-color:#EAF2D3;border:1px solid #98bf21;&quot;&gt;&lt;td&gt;Value 4&lt;/td&gt;&lt;td&gt;Value 5&lt;/td&gt;&lt;td&gt;Value 6&lt;/td&gt;&lt;/tr&gt;&lt;tr style=&quot;border:1px solid #98bf21;&quot;&gt;&lt;td&gt;Value 7&lt;/td&gt;&lt;td&gt;Value 8&lt;/td&gt;&lt;td&gt;Value 9&lt;/td&gt;&lt;/tr&gt;&lt;tr style=&quot;background-color:#EAF2D3;border:1px solid #98bf21;&quot;&gt;&lt;td&gt;Value 10&lt;/td&gt;&lt;td&gt;Value 11&lt;/td&gt;&lt;td&gt;Value 12&lt;/td&gt;&lt;/tr&gt;&lt;/tbody&gt;&lt;/table&gt;" style="text;html=1;overflow=fill;rounded=0;fontSize=24;" parent="GHOSXLU9OCpANRJcqfyZ-3" vertex="1">
          <mxGeometry x="1260" y="650" width="360" height="70" as="geometry" />
        </mxCell>
        <mxCell id="Vw7296cph1vAtUY9soFr-26" value="omega-vpc-sg-db (Out bound)" style="text;html=1;align=center;verticalAlign=middle;whiteSpace=wrap;rounded=0;labelBackgroundColor=#99FFFF;fontSize=24;" parent="GHOSXLU9OCpANRJcqfyZ-3" vertex="1">
          <mxGeometry x="1250" y="593" width="380" height="59" as="geometry" />
        </mxCell>
        <mxCell id="Vw7296cph1vAtUY9soFr-27" value="&lt;table border=&quot;1&quot; width=&quot;100%&quot; height=&quot;100%&quot; cellpadding=&quot;4&quot; style=&quot;width:100%;height:100%;border-collapse:collapse;&quot;&gt;&lt;tbody&gt;&lt;tr style=&quot;background-color:#A7C942;color:#ffffff;border:1px solid #98bf21;&quot;&gt;&lt;th align=&quot;left&quot;&gt;Protocol&lt;/th&gt;&lt;th align=&quot;left&quot;&gt;Port&lt;/th&gt;&lt;th align=&quot;left&quot;&gt;Source&lt;/th&gt;&lt;/tr&gt;&lt;tr style=&quot;border:1px solid #98bf21;&quot;&gt;&lt;td&gt;PostgreSQL&lt;/td&gt;&lt;td&gt;5432&lt;/td&gt;&lt;td&gt;10.0.0.0/16&lt;/td&gt;&lt;/tr&gt;&lt;tr style=&quot;background-color:#EAF2D3;border:1px solid #98bf21;&quot;&gt;&lt;td&gt;Value 4&lt;/td&gt;&lt;td&gt;Value 5&lt;/td&gt;&lt;td&gt;Value 6&lt;/td&gt;&lt;/tr&gt;&lt;tr style=&quot;border:1px solid #98bf21;&quot;&gt;&lt;td&gt;Value 7&lt;/td&gt;&lt;td&gt;Value 8&lt;/td&gt;&lt;td&gt;Value 9&lt;/td&gt;&lt;/tr&gt;&lt;tr style=&quot;background-color:#EAF2D3;border:1px solid #98bf21;&quot;&gt;&lt;td&gt;Value 10&lt;/td&gt;&lt;td&gt;Value 11&lt;/td&gt;&lt;td&gt;Value 12&lt;/td&gt;&lt;/tr&gt;&lt;/tbody&gt;&lt;/table&gt;" style="text;html=1;overflow=fill;rounded=0;fontSize=24;" parent="GHOSXLU9OCpANRJcqfyZ-3" vertex="1">
          <mxGeometry x="1250" y="503" width="370" height="70" as="geometry" />
        </mxCell>
        <mxCell id="GHOSXLU9OCpANRJcqfyZ-19" value="" style="outlineConnect=0;dashed=0;verticalLabelPosition=bottom;verticalAlign=top;align=center;html=1;shape=mxgraph.aws3.rds_db_instance_standby_multi_az;fillColor=#2E73B8;gradientColor=none;fontSize=24;" parent="GHOSXLU9OCpANRJcqfyZ-3" vertex="1">
          <mxGeometry x="841" y="593" width="80" height="90" as="geometry" />
        </mxCell>
        <mxCell id="GHOSXLU9OCpANRJcqfyZ-93" value="HTTP 8080" style="text;html=1;strokeColor=none;fillColor=none;align=center;verticalAlign=middle;whiteSpace=wrap;rounded=0;fontSize=24;" parent="GHOSXLU9OCpANRJcqfyZ-3" vertex="1">
          <mxGeometry x="460" y="120" width="60" height="72" as="geometry" />
        </mxCell>
        <mxCell id="GHOSXLU9OCpANRJcqfyZ-16" value="" style="sketch=0;points=[[0,0,0],[0.25,0,0],[0.5,0,0],[0.75,0,0],[1,0,0],[0,1,0],[0.25,1,0],[0.5,1,0],[0.75,1,0],[1,1,0],[0,0.25,0],[0,0.5,0],[0,0.75,0],[1,0.25,0],[1,0.5,0],[1,0.75,0]];outlineConnect=0;fontColor=#232F3E;gradientColor=#F78E04;gradientDirection=north;fillColor=#D05C17;strokeColor=#ffffff;dashed=0;verticalLabelPosition=bottom;verticalAlign=top;align=center;html=1;fontSize=12;fontStyle=0;aspect=fixed;shape=mxgraph.aws4.resourceIcon;resIcon=mxgraph.aws4.ec2;" parent="GHOSXLU9OCpANRJcqfyZ-3" vertex="1">
          <mxGeometry x="402" y="420" width="78" height="78" as="geometry" />
        </mxCell>
        <mxCell id="xp0xxWGgyvAD72CC1YtM-12" value="&lt;font style=&quot;font-size: 24px;&quot;&gt;10.0.1.0/24&lt;/font&gt;" style="text;html=1;strokeColor=none;fillColor=none;align=center;verticalAlign=middle;whiteSpace=wrap;rounded=0;" parent="GHOSXLU9OCpANRJcqfyZ-3" vertex="1">
          <mxGeometry x="160" y="290" width="150" height="30" as="geometry" />
        </mxCell>
        <mxCell id="GHOSXLU9OCpANRJcqfyZ-105" value="TCP 8079" style="text;html=1;strokeColor=none;fillColor=none;align=center;verticalAlign=middle;whiteSpace=wrap;rounded=0;fontSize=24;" parent="GHOSXLU9OCpANRJcqfyZ-3" vertex="1">
          <mxGeometry x="520" y="410" width="60" height="62" as="geometry" />
        </mxCell>
        <mxCell id="GHOSXLU9OCpANRJcqfyZ-86" value="EC2&lt;br&gt;SpringBoot API" style="text;html=1;strokeColor=none;fillColor=none;align=center;verticalAlign=middle;whiteSpace=wrap;rounded=0;fontSize=24;" parent="GHOSXLU9OCpANRJcqfyZ-3" vertex="1">
          <mxGeometry x="935" y="423" width="180" height="80" as="geometry" />
        </mxCell>
        <mxCell id="3FHLcvdIe8mN59UBqb5Q-2" value="TCP&lt;br&gt;5432" style="text;html=1;strokeColor=none;fillColor=none;align=center;verticalAlign=middle;whiteSpace=wrap;rounded=0;fontSize=24;" vertex="1" parent="GHOSXLU9OCpANRJcqfyZ-3">
          <mxGeometry x="500" y="511" width="60" height="70" as="geometry" />
        </mxCell>
        <mxCell id="xp0xxWGgyvAD72CC1YtM-7" value="" style="outlineConnect=0;dashed=0;verticalLabelPosition=bottom;verticalAlign=top;align=center;html=1;shape=mxgraph.aws3.internet_gateway;fillColor=#F58534;gradientColor=none;" parent="GHOSXLU9OCpANRJcqfyZ-2" vertex="1">
          <mxGeometry x="705" y="40" width="69" height="72" as="geometry" />
        </mxCell>
        <mxCell id="GHOSXLU9OCpANRJcqfyZ-20" value="" style="sketch=0;points=[[0,0,0],[0.25,0,0],[0.5,0,0],[0.75,0,0],[1,0,0],[0,1,0],[0.25,1,0],[0.5,1,0],[0.75,1,0],[1,1,0],[0,0.25,0],[0,0.5,0],[0,0.75,0],[1,0.25,0],[1,0.5,0],[1,0.75,0]];points=[[0,0,0],[0.25,0,0],[0.5,0,0],[0.75,0,0],[1,0,0],[0,1,0],[0.25,1,0],[0.5,1,0],[0.75,1,0],[1,1,0],[0,0.25,0],[0,0.5,0],[0,0.75,0],[1,0.25,0],[1,0.5,0],[1,0.75,0]];outlineConnect=0;fontColor=#232F3E;gradientColor=#F34482;gradientDirection=north;fillColor=#BC1356;strokeColor=#ffffff;dashed=0;verticalLabelPosition=bottom;verticalAlign=top;align=center;html=1;fontSize=12;fontStyle=0;aspect=fixed;shape=mxgraph.aws4.resourceIcon;resIcon=mxgraph.aws4.cloudwatch_2;" parent="GHOSXLU9OCpANRJcqfyZ-2" vertex="1">
          <mxGeometry x="700.5" y="902" width="78" height="78" as="geometry" />
        </mxCell>
        <mxCell id="GHOSXLU9OCpANRJcqfyZ-96" value="Public Network" style="shape=mxgraph.ibm.box;prType=public;fontStyle=0;verticalAlign=top;align=left;spacingLeft=32;spacingTop=4;fillColor=none;rounded=0;whiteSpace=wrap;html=1;strokeColor=#4376BB;strokeWidth=3;dashed=0;container=1;spacing=-4;collapsible=0;expand=0;recursiveResize=0;fontSize=24;" parent="1" vertex="1">
          <mxGeometry x="640" width="360" height="100" as="geometry" />
        </mxCell>
        <mxCell id="GHOSXLU9OCpANRJcqfyZ-23" value="Email" style="sketch=0;outlineConnect=0;fontColor=#232F3E;gradientColor=none;strokeColor=#232F3E;fillColor=#ffffff;dashed=0;verticalLabelPosition=bottom;verticalAlign=top;align=center;html=1;fontSize=12;fontStyle=0;aspect=fixed;shape=mxgraph.aws4.resourceIcon;resIcon=mxgraph.aws4.email;" parent="1" vertex="1">
          <mxGeometry x="1890" y="1020" width="80" height="80" as="geometry" />
        </mxCell>
        <mxCell id="Vw7296cph1vAtUY9soFr-28" style="edgeStyle=orthogonalEdgeStyle;rounded=0;orthogonalLoop=1;jettySize=auto;html=1;fontSize=24;" parent="1" source="GHOSXLU9OCpANRJcqfyZ-20" target="GHOSXLU9OCpANRJcqfyZ-23" edge="1">
          <mxGeometry relative="1" as="geometry" />
        </mxCell>
      </root>
    </mxGraphModel>
  </diagram>
</mxfile>
